<?xml version="1.0" encoding="UTF-8"?>
<svg xmlns="http://www.w3.org/2000/svg" width="auto" height="auto" viewBox="0 0 28 28" fill="#fff">
  <path fillRule="evenodd" clipRule="evenodd" d="M21.1532 7.45794C18.6892 5.77794 15.6465 6.56194 14.0038 8.4846C12.3612 6.56194 9.31851 5.7686 6.85451 7.45794C5.54784 8.35394 4.72651 9.86594 4.67051 11.4619C4.53984 15.0833 7.75051 17.9859 12.6505 22.4379L12.7438 22.5219C13.4532 23.1659 14.5452 23.1659 15.2545 22.5126L15.3572 22.4193C20.2572 17.9766 23.4585 15.0739 23.3372 11.4526C23.2812 9.86594 22.4598 8.35394 21.1532 7.45794ZM14.0972 21.0473L14.0038 21.1406L13.9105 21.0473C9.46784 17.0246 6.53718 14.3646 6.53718 11.6673C6.53718 9.8006 7.93718 8.4006 9.80384 8.4006C11.2412 8.4006 12.6412 9.3246 13.1358 10.6033H14.8812C15.3665 9.3246 16.7665 8.4006 18.2038 8.4006C20.0705 8.4006 21.4705 9.8006 21.4705 11.6673C21.4705 14.3646 18.5398 17.0246 14.0972 21.0473Z"/>
</svg>
